<svg xmlns="http://www.w3.org/2000/svg" width="1920" height="1080" viewBox="0 0 1920 1080" role="img" aria-labelledby="title desc">
  <title id="title">Hábitats dentro de asteroides</title>
  <desc id="desc">Cinematic realistic asteroid habitat study plate, dark rocky asteroid with engineered lit cavity, docking tunnels, radiators and small construction vehicles, premium aerospace realism, no text, no logos.</desc>
  
  <defs>
    <radialGradient id="spaceGlow" cx="66%" cy="42%" r="62%">
      <stop offset="0" stop-color="#f1c189" stop-opacity="0.35" />
      <stop offset="0.42" stop-color="#5e6977" stop-opacity="0.13" />
      <stop offset="1" stop-color="#020304" stop-opacity="0" />
    </radialGradient>
    <radialGradient id="earth" cx="48%" cy="42%" r="65%">
      <stop offset="0" stop-color="#2e7dcc" stop-opacity="0.65" />
      <stop offset="0.5" stop-color="#0c2740" stop-opacity="0.9" />
      <stop offset="1" stop-color="#02060a" stop-opacity="0" />
    </radialGradient>
    <linearGradient id="metal" x1="0" x2="1" y1="0" y2="1">
      <stop offset="0" stop-color="#f6fbff" stop-opacity="0.95" />
      <stop offset="0.28" stop-color="#8a929b" stop-opacity="0.86" />
      <stop offset="0.58" stop-color="#232932" stop-opacity="0.96" />
      <stop offset="1" stop-color="#dbe5ef" stop-opacity="0.72" />
    </linearGradient>
    <linearGradient id="darkMetal" x1="0" x2="1" y1="0" y2="1">
      <stop offset="0" stop-color="#d9e0e8" stop-opacity="0.68" />
      <stop offset="0.54" stop-color="#151a21" stop-opacity="0.94" />
      <stop offset="1" stop-color="#030405" stop-opacity="0.88" />
    </linearGradient>
    <filter id="glow" x="-70%" y="-70%" width="240%" height="240%">
      <feGaussianBlur stdDeviation="16" result="blur" />
      <feMerge><feMergeNode in="blur" /><feMergeNode in="SourceGraphic" /></feMerge>
    </filter>
    <filter id="fineGlow" x="-50%" y="-50%" width="200%" height="200%">
      <feGaussianBlur stdDeviation="4" result="blur" />
      <feMerge><feMergeNode in="blur" /><feMergeNode in="SourceGraphic" /></feMerge>
    </filter>
  </defs>
  <defs>
    <linearGradient id="readShade" x1="0" x2="1" y1="0" y2="1">
      <stop offset="0" stop-color="#000" stop-opacity="0.26" />
      <stop offset="0.52" stop-color="#000" stop-opacity="0.05" />
      <stop offset="1" stop-color="#000" stop-opacity="0.52" />
    </linearGradient>
  </defs>
  
  <rect width="100%" height="100%" fill="#020303" />
  <rect width="100%" height="100%" fill="url(#spaceGlow)" />
  <circle cx="0" cy="0" r="0.8" fill="#fff" opacity="0.14" />
<circle cx="379" cy="211" r="1.3" fill="#fff" opacity="0.31" />
<circle cx="758" cy="422" r="1.8" fill="#fff" opacity="0.48" />
<circle cx="1137" cy="633" r="0.8" fill="#fff" opacity="0.29" />
<circle cx="1516" cy="844" r="1.3" fill="#fff" opacity="0.46" />
<circle cx="1895" cy="1055" r="1.8" fill="#fff" opacity="0.27" />
<circle cx="354" cy="186" r="0.8" fill="#fff" opacity="0.44" />
<circle cx="733" cy="397" r="1.3" fill="#fff" opacity="0.25" />
<circle cx="1112" cy="608" r="1.8" fill="#fff" opacity="0.42" />
<circle cx="1491" cy="819" r="0.8" fill="#fff" opacity="0.23" />
<circle cx="1870" cy="1030" r="1.3" fill="#fff" opacity="0.40" />
<circle cx="329" cy="161" r="1.8" fill="#fff" opacity="0.21" />
<circle cx="708" cy="372" r="0.8" fill="#fff" opacity="0.38" />
<circle cx="1087" cy="583" r="1.3" fill="#fff" opacity="0.19" />
<circle cx="1466" cy="794" r="1.8" fill="#fff" opacity="0.36" />
<circle cx="1845" cy="1005" r="0.8" fill="#fff" opacity="0.17" />
<circle cx="304" cy="136" r="1.3" fill="#fff" opacity="0.34" />
<circle cx="683" cy="347" r="1.8" fill="#fff" opacity="0.15" />
<circle cx="1062" cy="558" r="0.8" fill="#fff" opacity="0.32" />
<circle cx="1441" cy="769" r="1.3" fill="#fff" opacity="0.49" />
<circle cx="1820" cy="980" r="1.8" fill="#fff" opacity="0.30" />
<circle cx="279" cy="111" r="0.8" fill="#fff" opacity="0.47" />
<circle cx="658" cy="322" r="1.3" fill="#fff" opacity="0.28" />
<circle cx="1037" cy="533" r="1.8" fill="#fff" opacity="0.45" />
<circle cx="1416" cy="744" r="0.8" fill="#fff" opacity="0.26" />
<circle cx="1795" cy="955" r="1.3" fill="#fff" opacity="0.43" />
<circle cx="254" cy="86" r="1.8" fill="#fff" opacity="0.24" />
<circle cx="633" cy="297" r="0.8" fill="#fff" opacity="0.41" />
<circle cx="1012" cy="508" r="1.3" fill="#fff" opacity="0.22" />
<circle cx="1391" cy="719" r="1.8" fill="#fff" opacity="0.39" />
<circle cx="1770" cy="930" r="0.8" fill="#fff" opacity="0.20" />
<circle cx="229" cy="61" r="1.3" fill="#fff" opacity="0.37" />
<circle cx="608" cy="272" r="1.8" fill="#fff" opacity="0.18" />
<circle cx="987" cy="483" r="0.8" fill="#fff" opacity="0.35" />
<circle cx="1366" cy="694" r="1.3" fill="#fff" opacity="0.16" />
<circle cx="1745" cy="905" r="1.8" fill="#fff" opacity="0.33" />
<circle cx="204" cy="36" r="0.8" fill="#fff" opacity="0.14" />
<circle cx="583" cy="247" r="1.3" fill="#fff" opacity="0.31" />
<circle cx="962" cy="458" r="1.8" fill="#fff" opacity="0.48" />
<circle cx="1341" cy="669" r="0.8" fill="#fff" opacity="0.29" />
<circle cx="1720" cy="880" r="1.3" fill="#fff" opacity="0.46" />
<circle cx="179" cy="11" r="1.8" fill="#fff" opacity="0.27" />
<circle cx="558" cy="222" r="0.8" fill="#fff" opacity="0.44" />
<circle cx="937" cy="433" r="1.3" fill="#fff" opacity="0.25" />
<circle cx="1316" cy="644" r="1.8" fill="#fff" opacity="0.42" />
<circle cx="1695" cy="855" r="0.8" fill="#fff" opacity="0.23" />
<circle cx="154" cy="1066" r="1.3" fill="#fff" opacity="0.40" />
<circle cx="533" cy="197" r="1.8" fill="#fff" opacity="0.21" />
<circle cx="912" cy="408" r="0.8" fill="#fff" opacity="0.38" />
<circle cx="1291" cy="619" r="1.3" fill="#fff" opacity="0.19" />
<circle cx="1670" cy="830" r="1.8" fill="#fff" opacity="0.36" />
<circle cx="129" cy="1041" r="0.8" fill="#fff" opacity="0.17" />
<circle cx="508" cy="172" r="1.3" fill="#fff" opacity="0.34" />
<circle cx="887" cy="383" r="1.8" fill="#fff" opacity="0.15" />
<circle cx="1266" cy="594" r="0.8" fill="#fff" opacity="0.32" />
<circle cx="1645" cy="805" r="1.3" fill="#fff" opacity="0.49" />
<circle cx="104" cy="1016" r="1.8" fill="#fff" opacity="0.30" />
<circle cx="483" cy="147" r="0.8" fill="#fff" opacity="0.47" />
<circle cx="862" cy="358" r="1.3" fill="#fff" opacity="0.28" />
<circle cx="1241" cy="569" r="1.8" fill="#fff" opacity="0.45" />
<circle cx="1620" cy="780" r="0.8" fill="#fff" opacity="0.26" />
<circle cx="79" cy="991" r="1.3" fill="#fff" opacity="0.43" />
<circle cx="458" cy="122" r="1.8" fill="#fff" opacity="0.24" />
<circle cx="837" cy="333" r="0.8" fill="#fff" opacity="0.41" />
<circle cx="1216" cy="544" r="1.3" fill="#fff" opacity="0.22" />
<circle cx="1595" cy="755" r="1.8" fill="#fff" opacity="0.39" />
<circle cx="54" cy="966" r="0.8" fill="#fff" opacity="0.20" />
<circle cx="433" cy="97" r="1.3" fill="#fff" opacity="0.37" />
<circle cx="812" cy="308" r="1.8" fill="#fff" opacity="0.18" />
<circle cx="1191" cy="519" r="0.8" fill="#fff" opacity="0.35" />
<circle cx="1570" cy="730" r="1.3" fill="#fff" opacity="0.16" />
<circle cx="29" cy="941" r="1.8" fill="#fff" opacity="0.33" />
<circle cx="408" cy="72" r="0.8" fill="#fff" opacity="0.14" />
<circle cx="787" cy="283" r="1.3" fill="#fff" opacity="0.31" />
<circle cx="1166" cy="494" r="1.8" fill="#fff" opacity="0.48" />
<circle cx="1545" cy="705" r="0.8" fill="#fff" opacity="0.29" />
<circle cx="4" cy="916" r="1.3" fill="#fff" opacity="0.46" />
<circle cx="383" cy="47" r="1.8" fill="#fff" opacity="0.27" />
<circle cx="762" cy="258" r="0.8" fill="#fff" opacity="0.44" />
<circle cx="1141" cy="469" r="1.3" fill="#fff" opacity="0.25" />
  <circle cx="260" cy="1040" r="410" fill="url(#earth)" opacity="0.72" />
  <path d="M0 750 C460 700 950 780 1920 650" stroke="#fff" stroke-opacity="0.07" stroke-width="2" fill="none" />
  <path d="M0 830 C560 735 1180 835 1920 735" stroke="#f1c189" stroke-opacity="0.11" stroke-width="2" fill="none" />
  <rect width="100%" height="100%" fill="url(#readShade)" />
  
    <g transform="translate(510 135)">
      <path d="M450 80 C610 90 785 200 812 352 C852 580 666 766 442 790 C244 812 86 700 40 520 C-20 290 190 66 450 80Z" fill="#242018" stroke="#b7a38c" stroke-opacity="0.55" stroke-width="6" />
      <path d="M245 330 C356 258 560 272 658 374 C576 468 376 510 242 450 C195 420 197 366 245 330Z" fill="#030405" stroke="#f1c189" stroke-opacity="0.64" stroke-width="6" />
      <ellipse cx="448" cy="390" rx="210" ry="94" fill="#f1c189" opacity="0.13" filter="url(#glow)" />
      <circle cx="110" cy="150" r="10" fill="#070809" opacity="0.35" /><circle cx="183" cy="263" r="18" fill="#070809" opacity="0.35" /><circle cx="256" cy="376" r="26" fill="#070809" opacity="0.35" /><circle cx="329" cy="489" r="34" fill="#070809" opacity="0.35" /><circle cx="402" cy="602" r="10" fill="#070809" opacity="0.35" /><circle cx="475" cy="155" r="18" fill="#070809" opacity="0.35" /><circle cx="548" cy="268" r="26" fill="#070809" opacity="0.35" /><circle cx="621" cy="381" r="34" fill="#070809" opacity="0.35" /><circle cx="694" cy="494" r="10" fill="#070809" opacity="0.35" /><circle cx="127" cy="607" r="18" fill="#070809" opacity="0.35" /><circle cx="200" cy="160" r="26" fill="#070809" opacity="0.35" /><circle cx="273" cy="273" r="34" fill="#070809" opacity="0.35" /><circle cx="346" cy="386" r="10" fill="#070809" opacity="0.35" /><circle cx="419" cy="499" r="18" fill="#070809" opacity="0.35" /><circle cx="492" cy="612" r="26" fill="#070809" opacity="0.35" /><circle cx="565" cy="165" r="34" fill="#070809" opacity="0.35" /><circle cx="638" cy="278" r="10" fill="#070809" opacity="0.35" /><circle cx="711" cy="391" r="18" fill="#070809" opacity="0.35" />
      <path d="M660 375 L930 310" stroke="#e9edf2" stroke-opacity="0.5" stroke-width="5" />
      <rect x="895" y="280" width="118" height="48" rx="8" fill="url(#metal)" />
    </g>
</svg>
